<svg version="1.1" id="Layer_1" xmlns="http://www.w3.org/2000/svg" xmlns:xlink="http://www.w3.org/1999/xlink" x="0px" y="0px"
	 width="100%" viewBox="0 0 1024 1024" enable-background="new 0 0 1024 1024" xml:space="preserve">
<path fill="#000000" opacity="1.000000" stroke="none" 
	d="
M723.210022,589.100952 
	C714.891235,604.828552 706.734985,620.221191 698.578796,635.613892 
	C698.117981,635.505249 697.657104,635.396606 697.196289,635.287964 
	C696.695007,631.150208 696.008301,627.025208 695.722534,622.872620 
	C693.950073,597.114319 673.859009,577.492981 648.347290,576.182617 
	C642.098450,575.861694 635.802368,575.546082 629.282471,575.144714 
	C629.562439,571.597229 632.245056,570.383423 634.108459,568.755676 
	C649.866699,554.990601 664.040466,539.829834 675.574585,522.305054 
	C691.575012,497.994354 701.244324,471.440338 704.851990,442.499359 
	C710.827271,394.565247 700.186523,350.865570 671.637390,311.954224 
	C640.054138,268.907501 597.762146,241.688171 544.950562,233.820801 
	C479.536774,224.076080 422.095520,242.429047 374.480133,289.012787 
	C347.720245,315.192932 329.970764,346.563263 322.792328,383.492157 
	C318.672943,404.684052 318.292358,425.972412 321.872833,447.393616 
	C324.746521,464.586212 329.753143,481.002014 337.009583,496.792358 
	C337.349182,497.531311 337.485382,498.363770 337.817780,499.499298 
	C334.760193,500.899261 331.751343,502.192261 328.816254,503.635223 
	C314.528564,510.659424 307.597870,522.403748 307.396423,538.080688 
	C307.180176,554.908569 307.347900,571.741272 307.348083,588.571899 
	C307.348114,590.346863 307.348083,592.121826 307.348083,593.802429 
	C305.403015,594.084045 304.979767,593.109863 304.552399,592.231567 
	C287.138092,556.441040 270.418579,520.370056 260.391907,481.632324 
	C254.199295,457.707306 250.289444,433.416016 251.799164,408.674042 
	C254.533661,363.859863 268.365448,322.531128 294.000153,285.640900 
	C334.982605,226.664093 391.425079,190.677750 461.476471,176.049362 
	C486.349518,170.855286 511.619843,170.391953 536.953979,172.561432 
	C589.421814,177.054504 636.769714,195.030380 678.095520,227.574234 
	C726.998047,266.084778 758.143188,315.896729 770.495789,377.245514 
	C774.407043,396.670837 775.331909,416.247681 774.041199,435.825104 
	C772.372009,461.144196 766.007385,485.584229 757.710876,509.555603 
	C748.266907,536.842285 736.347473,563.025635 723.210022,589.100952 
z"/>
<path fill="#000000" opacity="1.000000" stroke="none" 
	d="
M633.060364,739.227539 
	C601.347412,783.346741 568.033875,825.739319 531.500061,865.543945 
	C524.464661,873.209412 516.108093,876.390198 505.886444,873.184387 
	C501.664581,871.860229 498.180481,869.306946 495.226593,866.033264 
	C456.029755,822.592102 419.850586,776.713562 385.037537,729.727051 
	C383.057404,727.054504 382.285156,724.696899 383.979736,721.547302 
	C386.458527,716.940125 387.343719,711.800476 387.573944,706.646912 
	C387.710663,703.585754 388.879272,702.452820 391.797821,702.643494 
	C393.456177,702.751831 395.127991,702.647400 396.793762,702.649231 
	C467.922821,702.725830 539.051880,702.802734 610.180969,702.882385 
	C617.529419,702.890625 617.391418,702.918457 618.439636,710.080383 
	C619.840759,719.653381 623.935791,727.820129 631.762634,733.824463 
	C633.560364,735.203552 635.494995,736.439453 633.060364,739.227539 
z"/>
<path fill="#000000" opacity="1.000000" stroke="none" 
	d="
M326.687805,583.000000 
	C326.684296,568.501587 326.660919,554.503174 326.683350,540.504822 
	C326.704437,527.337952 334.956207,518.666687 347.417450,518.653992 
	C359.869080,518.641296 368.212006,527.198059 368.273773,540.475281 
	C368.396240,566.805054 368.334259,593.135742 368.348267,619.466003 
	C368.352234,626.915955 368.351807,626.928406 375.643951,626.930725 
	C462.467072,626.958374 549.290161,626.965942 636.113281,627.035278 
	C643.604126,627.041260 651.104187,627.283203 658.583252,627.709290 
	C669.720093,628.343628 677.708069,637.183105 678.436157,648.221924 
	C679.600342,665.874329 679.112793,683.528137 679.181152,701.180908 
	C679.215576,710.091370 676.806519,718.069946 668.347839,722.781982 
	C653.783936,730.895081 637.142212,721.201538 636.703369,704.311951 
	C636.508606,696.817749 636.475159,689.308167 636.731079,681.817932 
	C636.872620,677.678406 635.411377,676.289185 631.288757,676.314453 
	C608.792236,676.452454 586.294373,676.376953 563.796997,676.376831 
	C500.970886,676.376648 438.144806,676.376160 375.318695,676.379639 
	C368.352112,676.380005 368.347870,676.391602 368.340912,683.202332 
	C368.333740,690.201538 368.334808,697.200684 368.334442,704.199890 
	C368.333771,717.053589 360.577332,725.277527 348.337036,725.400452 
	C335.473328,725.529663 326.870361,717.349243 326.735016,704.485779 
	C326.577179,689.489075 326.690155,674.489624 326.689056,659.491333 
	C326.687225,634.160889 326.688110,608.830444 326.687805,583.000000 
z"/>
<path fill="#000000" opacity="1.000000" stroke="none" 
	d="
M566.002808,420.243530 
	C561.505737,420.241577 557.489258,420.483215 553.514893,420.176941 
	C548.479675,419.788879 546.483948,422.135315 546.508850,426.842834 
	C546.565186,437.492432 546.677795,448.142151 546.650146,458.791534 
	C546.627686,467.446045 546.588013,476.105988 546.256836,484.752075 
	C546.071350,489.595428 543.063782,492.674469 538.597412,494.226654 
	C536.239014,495.046204 533.758606,495.336060 531.224670,495.326263 
	C518.898315,495.278656 506.571350,495.361206 494.245270,495.289459 
	C484.226227,495.231140 479.663788,490.567841 479.654663,480.547455 
	C479.639191,463.556824 479.650726,446.566223 479.649323,429.575592 
	C479.648560,420.269958 479.647034,420.274231 470.585632,420.268433 
	C454.427887,420.258118 438.270172,420.236481 422.112427,420.234222 
	C419.608582,420.233856 417.144653,420.105560 414.692047,419.462555 
	C409.034088,417.979187 405.721191,414.206146 405.689148,408.470306 
	C405.603485,393.145905 405.586304,377.820251 405.690430,362.496094 
	C405.735596,355.850067 410.247467,351.690277 417.386902,351.657196 
	C435.709747,351.572266 454.033203,351.629059 472.356415,351.606659 
	C478.647705,351.598938 479.599548,350.727692 479.618073,344.389099 
	C479.668701,327.065521 479.611481,309.741669 479.620728,292.417908 
	C479.625397,283.716675 484.316315,278.826813 493.131256,278.734528 
	C506.122650,278.598480 519.117310,278.612885 532.109070,278.733093 
	C541.517944,278.820160 546.210754,283.594940 546.252808,293.016235 
	C546.331726,310.672821 546.416748,328.331329 546.218201,345.985870 
	C546.169739,350.294495 547.339600,351.774902 551.824280,351.718506 
	C570.144592,351.488068 588.469543,351.603638 606.792725,351.633026 
	C616.281860,351.648254 620.237732,354.552307 620.678650,364.030914 
	C621.359070,378.657043 621.376953,393.341919 620.952454,407.980896 
	C620.704651,416.526154 615.956970,420.102753 606.479004,420.201996 
	C593.154724,420.341583 579.827820,420.241425 566.002808,420.243530 
z"/>
<path fill="#000000" opacity="1.000000" stroke="none" 
	d="
M458.341797,596.947754 
	C458.293915,607.597412 455.534760,610.324402 445.240082,610.327332 
	C427.097870,610.332397 408.955627,610.350464 390.813477,610.315979 
	C383.549042,610.302185 382.669708,609.405823 382.658691,602.373962 
	C382.642822,592.221008 382.605072,582.067688 382.671509,571.915161 
	C382.739838,561.467834 389.470123,554.554321 399.832764,554.704468 
	C410.558441,554.859802 421.372162,553.411682 431.844971,557.699768 
	C447.558319,564.133484 458.273987,579.403687 458.341797,596.947754 
z"/>
</svg>