<?xml version="1.0" standalone="no"?>
<!DOCTYPE svg PUBLIC "-//W3C//DTD SVG 20010904//EN"
 "http://www.w3.org/TR/2001/REC-SVG-20010904/DTD/svg10.dtd">
<svg version="1.0" xmlns="http://www.w3.org/2000/svg"
 width="1024.000000pt" height="1024.000000pt" viewBox="0 0 1024.000000 1024.000000"
 preserveAspectRatio="xMidYMid meet">

<g transform="translate(0.000000,1024.000000) scale(0.100000,-0.100000)"
fill="#000000" stroke="none">
<path d="M4845 8520 c-640 -72 -1203 -348 -1645 -807 -190 -197 -320 -383
-440 -628 -85 -173 -131 -299 -175 -469 -134 -525 -85 -1002 170 -1651 68
-173 190 -448 258 -579 l42 -81 5 335 5 335 26 55 c45 97 135 178 232 209 20
7 37 15 37 19 0 3 -18 49 -40 102 -50 123 -85 244 -112 390 -31 164 -31 472 0
644 64 348 230 666 493 940 326 341 750 547 1228 597 153 16 415 7 556 -20
294 -55 579 -182 823 -365 116 -88 304 -278 391 -396 361 -486 455 -1091 264
-1685 -99 -309 -265 -561 -544 -828 l-140 -134 129 -6 c152 -8 231 -29 318
-85 76 -49 128 -109 170 -196 37 -76 51 -134 62 -250 l7 -78 107 198 c371 692
550 1149 630 1610 32 186 32 532 0 714 -58 329 -160 600 -326 874 -247 405
-603 735 -1023 949 -273 139 -531 222 -848 272 -118 19 -539 28 -660 15z"/>
<path d="M4870 7447 c-19 -7 -44 -27 -57 -46 -23 -34 -23 -37 -23 -352 l0
-319 -327 0 c-310 0 -330 -1 -361 -20 -18 -11 -37 -32 -42 -46 -6 -14 -10
-136 -10 -272 0 -264 3 -278 51 -314 25 -19 47 -20 358 -21 l331 -2 0 -331 c0
-448 -19 -423 325 -423 116 -1 227 4 247 9 20 6 48 24 62 41 l26 31 0 337 0
337 248 1 c486 3 430 -1 463 32 l29 29 0 271 0 271 -29 32 -29 33 -344 3 -343
3 3 303 c3 331 -1 363 -51 400 -27 20 -42 21 -260 23 -163 2 -242 -1 -267 -10z"/>
<path d="M3385 5041 c-48 -22 -79 -50 -102 -94 -17 -30 -18 -91 -18 -917 0
-878 0 -885 21 -925 75 -144 298 -138 365 10 16 34 19 67 19 208 l0 167 1345
0 1345 0 0 -147 c0 -82 4 -165 9 -186 13 -57 50 -103 104 -133 96 -52 220 -15
274 81 22 39 23 47 23 372 0 210 -4 342 -11 360 -16 42 -58 83 -114 109 l-50
24 -1462 0 -1462 0 -3 473 -3 472 -27 47 c-50 85 -164 120 -253 79z"/>
<path d="M3905 4678 c-26 -15 -48 -39 -62 -68 -22 -41 -23 -57 -23 -242 0
-187 1 -198 20 -208 14 -7 129 -10 351 -8 l331 3 24 28 c20 23 24 39 24 92 0
165 -90 305 -248 383 l-76 37 -150 3 c-142 3 -153 1 -191 -20z"/>
<path d="M3870 3183 c0 -43 -14 -102 -36 -154 l-16 -37 153 -203 c335 -446
770 -979 957 -1172 78 -81 106 -97 178 -104 90 -10 141 23 282 180 244 273
565 672 825 1026 l119 161 -52 50 c-61 59 -100 139 -107 220 l-6 59 -156 3
c-86 2 -603 5 -1148 6 l-993 2 0 -37z"/>
</g>
</svg>
